<svg width="51" height="51" viewBox="0 0 51 51" fill="none" xmlns="http://www.w3.org/2000/svg">
<g clip-path="url(#clip0_158_477)">
<path d="M4.03944 5.50006C2.09893 5.50006 0.514893 7.09315 0.514893 9.03352V35.358C0.514893 37.2984 2.09893 38.8915 4.03944 38.8915H18.1168L15.8154 44.8128H10.6638C10.1973 44.8128 9.81898 45.1902 9.81898 45.656C9.81898 45.8801 9.90799 46.0944 10.0664 46.253C10.2248 46.4112 10.4398 46.5001 10.6638 46.5001H39.366C39.59 46.5001 39.805 46.4112 39.9634 46.253C40.1218 46.0944 40.2108 45.8801 40.2108 45.656C40.2108 45.1902 39.8325 44.8128 39.366 44.8128H34.2144L31.913 38.8915H45.9903C47.9309 38.8915 49.5149 37.2984 49.5149 35.358V9.03352C49.5149 7.09315 47.9309 5.50006 45.9903 5.50006H4.03944ZM4.03944 7.18734L45.9905 7.18772C47.0194 7.18772 47.8254 7.99408 47.8254 9.0339V29.2032H40.8883V25.2035L40.8887 25.2031C40.8883 24.7376 40.5104 24.3602 40.0439 24.3598H37.4023C37.1183 23.3207 36.706 22.3215 36.1746 21.3849L38.0472 19.5056C38.375 19.1764 38.375 18.645 38.0472 18.3158L34.4364 14.6915V14.6911C34.278 14.5322 34.0622 14.4426 33.8375 14.4426C33.6127 14.4426 33.3973 14.5322 33.2389 14.6911L31.3708 16.5663C30.44 16.0345 29.4465 15.6214 28.4135 15.337V12.6803V12.6806C28.4135 12.4566 28.3245 12.2422 28.1661 12.0837C28.0077 11.9255 27.7927 11.8366 27.5687 11.8366H22.4612C21.9947 11.837 21.6164 12.2148 21.6164 12.6806V15.3396C20.5844 15.6232 19.5918 16.0379 18.6621 16.5697L16.791 14.6915V14.6911C16.6326 14.5322 16.4172 14.4426 16.1924 14.4426C15.9677 14.4426 15.7519 14.5322 15.5935 14.6911L11.9829 18.3154V18.3158C11.6552 18.645 11.6552 19.1764 11.9829 19.5056L13.859 21.3883C13.3275 22.3234 12.9153 23.3215 12.6317 24.3598H9.98595C9.51941 24.3602 9.14149 24.7376 9.14111 25.2031V29.2028H2.20401V9.03352C2.20401 7.99367 3.01038 7.18734 4.03889 7.18734H4.03944ZM23.3065 13.5233H26.7243V15.9952C26.7243 16.3914 27.0007 16.7345 27.3884 16.8192C28.6874 17.1028 29.9255 17.618 31.0442 18.3393V18.3389C31.3795 18.5547 31.8204 18.5069 32.1014 18.2244L33.8381 16.4814L36.2569 18.9096L34.514 20.659C34.2353 20.9396 34.1889 21.3754 34.4024 21.7083C35.1216 22.8318 35.635 24.0758 35.9178 25.3808C36.0019 25.7691 36.3458 26.0459 36.7434 26.0459H39.2009V29.202H30.0729C30.2038 28.7369 30.2709 28.2537 30.2709 27.7659C30.2709 24.8671 27.9103 22.495 25.0156 22.495C22.121 22.495 19.7602 24.8674 19.7602 27.7659C19.7602 28.2536 19.8274 28.7368 19.9583 29.202H10.8303V26.0459H13.2916H13.2908C13.6884 26.0459 14.032 25.7691 14.1164 25.3816C14.4004 24.0774 14.913 22.8348 15.6318 21.7121C15.8453 21.3791 15.7985 20.943 15.5198 20.6628L13.7732 18.9096L16.1923 16.4814L17.9325 18.2282C18.2138 18.511 18.6547 18.5589 18.99 18.343C20.1075 17.6214 21.3446 17.1062 22.6424 16.8215C23.0297 16.7364 23.3058 16.3937 23.3058 15.9974L23.3065 13.5233ZM25.0154 24.1821C26.9925 24.1821 28.5814 25.7745 28.5814 27.7661C28.5814 28.2621 28.4792 28.7506 28.2812 29.2022H21.7477C21.5531 28.7507 21.4475 28.2622 21.4475 27.7661C21.4475 25.7745 23.0368 24.1821 25.0136 24.1821H25.0154ZM2.20485 30.8894H9.97887L9.97849 30.8898V30.8906C9.98905 30.8906 9.99999 30.8902 10.0106 30.8898H21.1942C21.227 30.8917 21.2602 30.8917 21.293 30.8898H28.7419C28.7747 30.8917 28.8079 30.8917 28.8407 30.8898H40.0379V30.8906C40.0484 30.8906 40.059 30.8902 40.0696 30.8898H47.8303V35.3581C47.8303 36.398 47.024 37.2043 45.9955 37.2043H4.04437C3.01551 37.2043 2.20949 36.3979 2.20949 35.3581L2.20485 30.8894ZM19.93 38.8916H30.1018L32.4032 44.8129H17.6287L19.93 38.8916Z" fill="#CEA74E" stroke="#CEA74E" stroke-width="0.5"/>
</g>
<defs>
<clipPath id="clip0_158_477">
<rect width="50" height="50" fill="white" transform="translate(0.514893 0.500061)"/>
</clipPath>
</defs>
</svg>
