<svg width="51" height="51" viewBox="0 0 51 51" fill="none" xmlns="http://www.w3.org/2000/svg">
<path d="M43.0387 8.59692C46.5791 8.59692 49.4741 11.3607 49.6837 14.8485L49.6958 15.2541V35.8429C49.6958 39.3834 46.932 42.2783 43.4442 42.4879L43.0387 42.5001H7.99111C4.45065 42.5001 1.55572 39.7363 1.34613 36.2485L1.33398 35.8429V15.2541C1.33398 11.7136 4.09779 8.81866 7.58558 8.60907L7.99111 8.59692H43.0387ZM46.0626 23.0586H4.96272L4.96514 35.8429C4.96514 37.4097 6.15586 38.6983 7.68172 38.8533L7.99111 38.8689H43.0387C44.6054 38.8689 45.8941 37.6782 46.049 36.1523L46.0646 35.8429L46.0626 23.0586ZM40.6518 31.5441C41.6546 31.5441 42.4674 32.357 42.4674 33.3597C42.4674 34.2789 41.7844 35.0385 40.8982 35.1587L40.6518 35.1753H34.5999C33.5972 35.1753 32.7843 34.3624 32.7843 33.3597C32.7843 32.4406 33.4674 31.6809 34.3535 31.5607L34.5999 31.5441H40.6518ZM43.0387 12.2281H7.99111C6.42437 12.2281 5.13573 13.4188 4.98077 14.9447L4.96514 15.2541L4.96272 19.4275H46.0626L46.0646 15.2541C46.0646 13.6873 44.8739 12.3987 43.3481 12.2437L43.0387 12.2281Z" fill="#CEA74E"/>
</svg>
