<svg width="51" height="51" viewBox="0 0 51 51" fill="none" xmlns="http://www.w3.org/2000/svg">
<g clip-path="url(#clip0_158_494)">
<path d="M17.1666 31.75H7.79158C6.41059 31.7489 5.08647 31.1998 4.10996 30.2233C3.13344 29.2468 2.58436 27.9227 2.58325 26.5417V7.79171C2.58436 6.41071 3.13344 5.08659 4.10996 4.11008C5.08647 3.13357 6.41059 2.58448 7.79158 2.58337H26.5416C27.9226 2.58448 29.2467 3.13357 30.2232 4.11008C31.1997 5.08659 31.7488 6.41071 31.7499 7.79171V17.1667H29.6666V7.79171C29.6655 6.96324 29.3359 6.16903 28.7501 5.58322C28.1643 4.9974 27.37 4.66781 26.5416 4.66671H7.79158C6.96312 4.66781 6.16891 4.9974 5.58309 5.58322C4.99728 6.16903 4.66769 6.96324 4.66659 7.79171V26.5417C4.66769 27.3702 4.99728 28.1644 5.58309 28.7502C6.16891 29.336 6.96312 29.6656 7.79158 29.6667H17.1666V31.75ZM17.0874 21.7271C14.7721 23.5247 12.0958 24.8011 9.24159 25.4688L8.73742 23.448C11.2129 22.8688 13.5412 21.7819 15.5749 20.2563C13.1092 17.6574 11.4154 14.4236 10.6833 10.9167H8.83325V8.83337H15.6645L14.5312 7.70004L16.0041 6.22712L18.6083 8.83337H25.4999V10.9167H23.5958C23.0783 13.2474 22.1575 15.4697 20.8749 17.4834C19.1352 18.3874 17.7865 19.897 17.0833 21.7271H17.0874ZM17.1541 18.8459C19.2747 16.6378 20.7602 13.8985 21.4541 10.9167H12.8374C13.5373 13.8998 15.0285 16.6389 17.1541 18.8459ZM48.4166 43.098V24.5688C48.4243 23.8747 48.2945 23.1859 48.0348 22.5421C47.7751 21.8984 47.3905 21.3124 46.9032 20.818C46.416 20.3236 45.8357 19.9305 45.1958 19.6614C44.5559 19.3923 43.8691 19.2525 43.1749 19.25H24.5687C23.1586 19.2517 21.8067 19.8126 20.8096 20.8097C19.8125 21.8068 19.2516 23.1587 19.2499 24.5688V43.098C19.2516 44.5081 19.8125 45.86 20.8096 46.8571C21.8067 47.8542 23.1586 48.4151 24.5687 48.4167H43.0978C44.5079 48.4151 45.8598 47.8542 46.8569 46.8571C47.854 45.86 48.4149 44.5081 48.4166 43.098ZM43.1749 21.3334C44.0124 21.3339 44.8154 21.6669 45.4076 22.259C45.9998 22.8512 46.3327 23.6542 46.3333 24.4917V43.175C46.3327 44.0125 45.9998 44.8155 45.4076 45.4077C44.8154 45.9999 44.0124 46.3328 43.1749 46.3334H24.4916C23.6541 46.3328 22.8511 45.9999 22.2589 45.4077C21.6667 44.8155 21.3338 44.0125 21.3333 43.175V24.4917C21.3338 23.6542 21.6667 22.8512 22.2589 22.259C22.8511 21.6669 23.6541 21.3339 24.4916 21.3334H43.1749ZM38.8291 38H28.8374L26.4228 42.6459L24.577 41.6875L33.8333 23.8646L43.0895 41.6875L41.2437 42.6459L38.8291 38ZM37.7458 35.9167L33.8333 28.3855L29.9207 35.9167H37.7458Z" fill="#CEA74E"/>
</g>
<defs>
<clipPath id="clip0_158_494">
<rect width="50" height="50" fill="white" transform="translate(0.5 0.500061)"/>
</clipPath>
</defs>
</svg>
