<svg width="51" height="50" viewBox="0 0 51 50" fill="none" xmlns="http://www.w3.org/2000/svg">
<g clip-path="url(#clip0_158_517)">
<path d="M50.466 10.4051C50.4592 10.3731 50.4572 10.3445 50.4473 10.3137C50.3986 10.1687 50.3161 10.0433 50.2013 9.94487C50.1934 9.93784 50.1926 9.92612 50.1842 9.91908L39.3554 1.19267C39.3379 1.1786 39.314 1.18017 39.2952 1.16766C39.2007 1.10242 39.0959 1.05867 38.9791 1.03483C38.9417 1.02702 38.909 1.01608 38.8707 1.01334C38.8484 1.01178 38.8288 1.00045 38.8061 1.00045L2.36458 1.00006C1.88745 1.00006 1.5 1.37981 1.5 1.84747V32.7355C1.5 33.2031 1.88745 33.5837 2.36458 33.5837H26.5936C26.6144 33.5981 26.6363 33.6192 26.6566 33.6333C26.8149 33.7431 27.0544 33.9107 27.105 33.9994C27.1589 34.0904 27.1844 34.3674 27.2031 34.5705C27.2473 35.0421 27.3012 35.6297 27.7117 36.0911C28.1243 36.5564 28.7122 36.6912 29.183 36.7986C29.3855 36.8463 29.6621 36.9084 29.7446 36.9705C29.8271 37.0327 29.9618 37.287 30.0527 37.4566C30.2672 37.8574 30.5478 38.3403 31.056 38.6247L27.9011 44.8112C27.7627 45.0843 27.7827 45.407 27.9561 45.6614C28.1291 45.9138 28.4172 46.0318 28.7361 46.0357L31.6511 45.8309L32.8058 48.1852C32.9493 48.4747 33.2491 48.6611 33.5783 48.6654H33.5847C33.9119 48.6654 34.2117 48.4833 34.3572 48.1958L36.9593 43.1048L39.8221 48.6737C39.97 48.9612 40.2697 49.1413 40.5946 49.1413C40.6137 49.1413 40.6324 49.1394 40.6516 49.1394C40.998 49.1167 41.2973 48.8932 41.4113 48.5705L42.3991 45.7818L45.3332 46.5991C45.6688 46.6964 46.0256 46.5803 46.2428 46.3158C46.46 46.049 46.4959 45.6829 46.3313 45.3829L42.0631 37.6218C42.4772 37.5734 42.9348 37.4777 43.3147 37.1549C43.7875 36.7494 43.9246 36.1763 44.0346 35.7149C44.0808 35.5164 44.1466 35.2453 44.212 35.1605C44.2754 35.082 44.5372 34.9476 44.7078 34.8585C45.1383 34.6393 45.6745 34.3639 45.9575 33.8096C45.9953 33.7349 46.0109 33.6591 46.0356 33.5841H49.6342C50.1114 33.5841 50.4996 33.2036 50.4996 32.7359L50.5 10.5733C50.5 10.5136 50.4773 10.4608 50.4653 10.4046L50.466 10.4051ZM39.6729 3.6411L47.2695 9.764L39.6729 9.88393V3.6411ZM33.6002 45.896L32.9544 44.5781C32.8026 44.2656 32.4669 44.1066 32.1142 44.1003L30.1279 44.239L32.9205 38.7592C33.0943 38.7338 33.2737 38.7116 33.3514 38.7315C33.4463 38.7565 33.6679 38.9382 33.8138 39.0605C34.1809 39.3597 34.6377 39.7254 35.2531 39.7848L35.9913 41.2205L33.6002 45.896ZM43.8371 44.4207L42.0873 43.9324C41.648 43.8042 41.186 44.0441 41.0342 44.4703L40.4474 46.1253L36.9075 39.2367C37.0673 39.1394 37.275 39.016 37.3635 39.0046C37.4671 39.0066 37.7477 39.073 37.9502 39.1371C38.4082 39.2758 38.9782 39.4516 39.5733 39.257C40.0293 39.1058 40.3211 38.7905 40.5686 38.4772L43.8371 44.4207ZM45.0126 30.0914C44.7551 30.3934 44.4618 30.7368 44.335 31.19C44.2106 31.6494 44.2864 32.0983 44.3518 32.4933C44.3836 32.6734 44.4343 32.9754 44.4127 33.0477C44.3577 33.1262 44.0771 33.2712 43.9081 33.3559C43.547 33.5423 43.1376 33.7509 42.8442 34.1232C42.5488 34.4975 42.4432 34.9406 42.3503 35.3293C42.3081 35.5094 42.2363 35.8095 42.1877 35.8693C42.1052 35.9208 41.7931 35.9478 41.6049 35.9646C41.2259 35.9994 40.8006 36.0502 40.4028 36.2471C40.3813 36.2564 40.3573 36.2556 40.3362 36.2666C40.3326 36.2685 40.331 36.2721 40.3274 36.274C40.3231 36.2767 40.3179 36.2764 40.3131 36.2791C39.8993 36.5127 39.6335 36.8792 39.3971 37.2038C39.2875 37.355 39.1017 37.6094 39.03 37.6465C38.9307 37.6692 38.6393 37.5719 38.4644 37.5184C38.0697 37.3984 37.6285 37.264 37.1449 37.3238C36.6722 37.3816 36.2859 37.6176 35.9439 37.8266C35.7793 37.9282 35.5026 38.0958 35.4161 38.1017C35.3189 38.0829 35.0698 37.8801 34.9223 37.7582C34.6122 37.5039 34.2614 37.2164 33.8014 37.096C33.6157 37.0464 33.4319 37.0277 33.2506 37.0277C32.9759 37.0277 32.7125 37.071 32.4677 37.1105C32.2863 37.1394 31.9758 37.1953 31.9021 37.1683C31.822 37.1144 31.6741 36.8374 31.5856 36.6717C31.3978 36.3201 31.1866 35.9208 30.8067 35.631C30.4248 35.3415 29.9728 35.2379 29.5762 35.1469C29.3924 35.1055 29.0887 35.0371 29.0233 34.9856C28.9707 34.9047 28.9432 34.5988 28.9261 34.4167C28.8882 34.0174 28.8459 33.5666 28.6072 33.1567C28.3664 32.7469 27.9917 32.4843 27.6617 32.2527C27.5074 32.1452 27.2491 31.9651 27.2109 31.8948C27.1949 31.8018 27.2878 31.5119 27.3428 31.3384C27.4652 30.9536 27.6023 30.5211 27.5421 30.0476C27.4819 29.5843 27.2404 29.2037 27.0271 28.8685C26.9247 28.7072 26.7536 28.438 26.7485 28.3493C26.7664 28.254 26.9733 28.0122 27.0976 27.8653C27.3563 27.5633 27.6485 27.2198 27.7721 26.7698C27.9008 26.3084 27.8247 25.8583 27.7585 25.4622C27.7278 25.2821 27.6772 24.982 27.6983 24.9078C27.7534 24.8293 28.0352 24.6855 28.2018 24.5995C28.5629 24.4155 28.9723 24.2065 29.2657 23.8342C29.561 23.4587 29.6667 23.0169 29.7596 22.627C29.8018 22.4469 29.8736 22.1468 29.9242 22.0859C30.0043 22.0351 30.3188 22.0073 30.5069 21.9905C30.9123 21.9542 31.3743 21.9128 31.7944 21.676C32.2101 21.4424 32.4764 21.0759 32.7128 20.7525C32.8224 20.6005 33.0082 20.3461 33.0779 20.3086C33.1919 20.2848 33.4705 20.384 33.6479 20.4387C34.0385 20.5587 34.4922 20.688 34.9649 20.6341C35.4376 20.5751 35.8259 20.3383 36.1679 20.1293C36.3305 20.0289 36.6047 19.8613 36.6956 19.8562C36.7929 19.8738 37.042 20.0777 37.1915 20.1996C37.4996 20.452 37.85 20.7388 38.3079 20.8607C38.7743 20.9849 39.2347 20.9091 39.642 20.8462C39.8258 20.8161 40.1339 20.7626 40.2077 20.7884C40.2878 20.8423 40.4357 21.1185 40.5242 21.2838C40.7119 21.6354 40.9252 22.0347 41.305 22.3235C41.6869 22.6141 42.1365 22.7165 42.5335 22.8075C42.7173 22.8489 43.0234 22.9193 43.0864 22.9689C43.139 23.0497 43.1665 23.3568 43.1837 23.5401C43.2215 23.9382 43.2638 24.3902 43.5045 24.8012C43.7429 25.2098 44.1168 25.4716 44.448 25.7021C44.6023 25.8095 44.8598 25.9908 44.8976 26.0611C44.9144 26.1541 44.8215 26.444 44.7669 26.6175C44.6445 27.0003 44.505 27.4348 44.5684 27.9107C44.6274 28.3721 44.8701 28.7526 45.0834 29.0859C45.1846 29.2453 45.3536 29.5121 45.36 29.6113C45.3397 29.7067 45.1348 29.9485 45.0124 30.0915L45.0126 30.0914ZM48.7699 31.887H46.0084C45.996 31.7792 45.9912 31.6842 46.0048 31.6326C46.0303 31.5397 46.2156 31.3224 46.3384 31.1795C46.6529 30.8114 47.0436 30.352 47.0878 29.7272C47.132 29.1025 46.8092 28.5954 46.5517 28.1899C46.4504 28.0305 46.2962 27.7906 46.2834 27.6953C46.2707 27.5878 46.3552 27.3186 46.4185 27.1213C46.562 26.6713 46.7394 26.1107 46.5429 25.5336C46.3424 24.9448 45.8485 24.6006 45.4535 24.3232C45.2952 24.2126 45.0565 24.045 45.0039 23.9571C44.9513 23.8672 44.9258 23.5891 44.9066 23.3859C44.8624 22.9144 44.8074 22.3255 44.3956 21.8634C43.9838 21.3988 43.3991 21.2656 42.9287 21.1578C42.7262 21.1113 42.4476 21.0472 42.3631 20.9839C42.283 20.923 42.1479 20.6675 42.057 20.4987C41.831 20.0756 41.5504 19.5489 40.9847 19.2739C40.4275 19.002 39.8363 19.0969 39.3616 19.1735C39.1548 19.2086 38.8658 19.2551 38.7601 19.2243C38.6673 19.2004 38.4456 19.0184 38.3001 18.8984C37.9247 18.5914 37.4559 18.2097 36.8185 18.1659C36.1851 18.1081 35.6661 18.437 35.2523 18.6914C35.0897 18.7906 34.845 18.9406 34.7501 18.952C34.6465 18.9653 34.3658 18.8824 34.1633 18.8207C33.701 18.6789 33.1354 18.5042 32.5382 18.6996C31.9387 18.8973 31.5883 19.3802 31.3053 19.7682C31.1913 19.9233 31.0223 20.1573 30.9338 20.2057C30.841 20.2585 30.5583 20.2835 30.3511 20.3018C29.87 20.3444 29.2704 20.398 28.7953 20.8027C28.3226 21.2063 28.1855 21.7802 28.0766 22.2416C28.0292 22.4401 27.9638 22.7124 27.8985 22.796C27.8363 22.8757 27.5756 23.0082 27.4034 23.0972C26.9729 23.3176 26.4368 23.5919 26.155 24.1462C25.8764 24.6936 25.9744 25.2726 26.0526 25.7383C26.0872 25.941 26.1339 26.2192 26.1044 26.327C26.0789 26.4181 25.8943 26.6353 25.7707 26.7802C25.4582 27.1475 25.0688 27.6046 25.0246 28.2293C24.9803 28.854 25.302 29.3588 25.5607 29.7643C25.6619 29.9237 25.815 30.1656 25.8266 30.2589C25.8401 30.3687 25.7548 30.6375 25.6926 30.834C25.5946 31.1427 25.4885 31.5044 25.4897 31.8869L3.2301 31.8873V2.69454H37.942V10.7447C37.942 10.972 38.0349 11.1893 38.2015 11.3487C38.3618 11.5049 38.5814 11.5917 38.8074 11.5917H38.8221L48.7705 11.4346L48.7699 31.887Z" fill="#CEA74E"/>
<path d="M24.7809 7.10059H5.97542C5.49829 7.10059 5.11084 7.48034 5.11084 7.94799C5.11084 8.41565 5.49829 8.7954 5.97542 8.7954H24.7809C25.258 8.7954 25.6455 8.41565 25.6455 7.94799C25.6451 7.48034 25.2576 7.10059 24.7809 7.10059Z" fill="#CEA74E"/>
<path d="M24.7809 13.5836H5.97542C5.49829 13.5836 5.11084 13.9634 5.11084 14.431C5.11084 14.8987 5.49829 15.2784 5.97542 15.2784H24.7809C25.258 15.2784 25.6455 14.8987 25.6455 14.431C25.6451 13.9634 25.2576 13.5836 24.7809 13.5836Z" fill="#CEA74E"/>
<path d="M24.7809 20.0667H5.97542C5.49829 20.0667 5.11084 20.4464 5.11084 20.9141C5.11084 21.3817 5.49829 21.7615 5.97542 21.7615H24.7809C25.258 21.7615 25.6455 21.3817 25.6455 20.9141C25.6451 20.4464 25.2576 20.0667 24.7809 20.0667Z" fill="#CEA74E"/>
<path d="M36.4771 23.0071C34.8603 22.8954 33.2771 23.4134 32.0466 24.4625C30.8161 25.5122 30.0771 26.9688 29.9635 28.5639C29.8515 30.1591 30.3792 31.7023 31.4495 32.9084C32.5197 34.1145 34.0057 34.8388 35.6353 34.9502C35.7768 34.9584 35.9183 34.9646 36.0574 34.9646C39.2343 34.9646 41.9252 32.5439 42.1492 29.391C42.2612 27.7959 41.7335 26.2538 40.6633 25.0473C39.5926 23.842 38.1046 23.1168 36.4771 23.0071ZM35.7532 33.2588C33.3448 33.0955 31.5212 31.0408 31.6899 28.6803C31.77 27.5384 32.2998 26.4945 33.1823 25.7416C33.9866 25.0559 34.9935 24.6875 36.0486 24.6875C36.1523 24.6875 36.2555 24.6906 36.3588 24.698C37.5259 24.7777 38.5897 25.297 39.3583 26.1616C40.1269 27.0262 40.5043 28.1322 40.4222 29.2762C40.258 31.6368 38.1342 33.466 35.7533 33.2588L35.7532 33.2588Z" fill="#CEA74E"/>
</g>
<defs>
<clipPath id="clip0_158_517">
<rect width="50" height="50" fill="white" transform="translate(0.5 6.10352e-05)"/>
</clipPath>
</defs>
</svg>
