<svg width="62" height="62" viewBox="0 0 62 62" fill="none" xmlns="http://www.w3.org/2000/svg">
<path d="M26.8476 17.9593C27.197 17.9593 27.4799 17.679 27.4799 17.3329V11.6702C27.4799 11.324 27.197 11.0437 26.8476 11.0437C26.4983 11.0437 26.2154 11.324 26.2154 11.6702V17.3329C26.2154 17.679 26.4983 17.9593 26.8476 17.9593ZM44.4798 20.2443C44.8292 20.2443 45.112 19.964 45.112 19.6178V11.4868C45.112 11.1406 44.8292 10.8603 44.4798 10.8603C44.1304 10.8603 43.8475 11.1406 43.8475 11.4868V19.6191C43.8475 19.9653 44.1304 20.2456 44.4798 20.2456V20.2443ZM40.3849 20.0867V23.7021C40.3849 24.0482 40.6678 24.3285 41.0172 24.3285C41.3666 24.3285 41.6495 24.0482 41.6495 23.7021V20.0867C41.6495 19.7405 41.3666 19.4602 41.0172 19.4602C40.6678 19.4602 40.3849 19.7405 40.3849 20.0867ZM50.9238 37.9776C49.2004 36.6459 47.3922 37.5629 47.0858 37.7347L38.7254 41.4547C37.3357 41.4961 35.2068 41.5284 34.7062 41.4573C34.4506 41.4211 33.3125 41.1602 31.8889 40.8231C32.8276 40.6655 34.0074 40.1747 34.2603 39.0341C34.4924 38.0783 34.3985 37.3007 33.9826 36.7195C33.4638 35.9949 32.6594 35.8954 32.5629 35.8864C32.5382 35.8838 30.0012 35.6655 26.2805 35.5311C22.5051 35.3942 21.3357 36.4637 20.5613 37.1716C20.5157 37.2129 20.4727 37.2529 20.4297 37.2917C20.079 37.6043 19.448 38.1093 18.907 38.5343C18.761 37.8962 18.1848 37.417 17.4964 37.417H12.7198C11.9219 37.417 11.2727 38.0602 11.2727 38.8507V50.2329C11.2727 51.0234 11.9219 51.6666 12.7198 51.6666H17.4938C18.1026 51.6666 18.6254 51.2908 18.8379 50.7612C21.6486 50.7405 34.4298 50.6307 36.0372 50.313C37.8011 49.9642 47.8628 42.9608 49.9448 41.5025C50.285 41.3139 51.5704 40.5325 51.6617 39.4359C51.693 39.0548 51.5913 38.4929 50.9238 37.9776ZM49.3073 40.4214C49.2851 40.433 49.2642 40.4459 49.2447 40.4601C44.661 43.6725 36.955 48.856 35.7908 49.0859C34.4819 49.3442 23.7371 49.4747 18.9409 49.5096V40.0998C19.4676 39.6942 20.6943 38.7396 21.2718 38.2243C21.3188 38.1829 21.3657 38.139 21.4153 38.0938C22.0749 37.4919 22.977 36.6678 26.2323 36.7841C29.7822 36.9132 32.2396 37.1173 32.4378 37.1341C32.4821 37.1406 32.7793 37.1961 32.9579 37.4557C33.1444 37.727 33.1691 38.1739 33.0296 38.7487C33.0296 38.7539 33.027 38.759 33.0257 38.7642C32.8836 39.4165 31.7025 39.6115 31.2879 39.6309H26.8672C26.5478 39.6309 26.2779 39.8673 26.2401 40.1811C26.201 40.495 26.4057 40.7882 26.716 40.8644C27.4343 41.0401 33.7623 42.5888 34.5276 42.6973C35.3163 42.8097 38.5259 42.7141 38.8896 42.7038C38.9718 42.7012 39.0539 42.6831 39.1295 42.6495L47.6346 38.8649C47.6594 38.8533 47.6842 38.8404 47.7077 38.8262C47.7207 38.8184 48.9826 38.0654 50.1468 38.9657C50.3254 39.1039 50.4115 39.2266 50.4023 39.3338C50.375 39.6696 49.7479 40.1824 49.3073 40.4214ZM26.8672 32.435C29.9738 32.435 32.5017 29.9305 32.5017 26.8524C32.5017 23.7744 29.9738 21.2699 26.8672 21.2699C23.7606 21.2699 21.2327 23.7744 21.2327 26.8524C21.2327 29.9305 23.7606 32.435 26.8672 32.435ZM26.8672 22.5215C29.2777 22.5215 31.2371 24.4641 31.2371 26.8511C31.2371 29.2381 29.2764 31.1808 26.8672 31.1808C24.458 31.1808 22.4973 29.2381 22.4973 26.8511C22.4973 24.4641 24.458 22.5215 26.8672 22.5215ZM34.1169 30.7081C34.1169 33.7861 36.6447 36.2906 39.7514 36.2906C42.858 36.2906 45.3858 33.7861 45.3858 30.7081C45.3858 27.63 42.858 25.1255 39.7514 25.1255C36.6447 25.1255 34.1169 27.63 34.1169 30.7081ZM44.1226 30.7081C44.1226 33.0964 42.1618 35.0377 39.7527 35.0377C37.3435 35.0377 35.3828 33.0951 35.3828 30.7081C35.3828 28.3211 37.3435 26.3784 39.7527 26.3784C42.1618 26.3784 44.1226 28.3211 44.1226 30.7081ZM35.3593 21.4998C38.4659 21.4998 40.9938 18.9952 40.9938 15.9172C40.9938 12.8391 38.4646 10.3333 35.358 10.3333C32.2514 10.3333 29.7235 12.8379 29.7235 15.9159C29.7235 18.9939 32.2514 21.4985 35.358 21.4985L35.3593 21.4998ZM35.3593 11.5862C37.7698 11.5862 39.7292 13.5289 39.7292 15.9159C39.7292 18.3029 37.7685 20.2456 35.3593 20.2456C32.9501 20.2456 30.9894 18.3029 30.9894 15.9159C30.9894 13.5289 32.9501 11.5862 35.3593 11.5862Z" fill="#CEA74E"/>
</svg>
