<svg width="62" height="63" viewBox="0 0 62 63" fill="none" xmlns="http://www.w3.org/2000/svg">
<path d="M41.1329 23.9534C39.3323 22.9375 37.5401 22.7094 37.4649 22.6995L37.3933 23.2987V12.4582C37.3933 12.044 37.0609 11.7727 36.715 11.7727C36.5427 11.7727 36.3656 11.8405 36.2261 11.9909C26.9146 22.0694 19.0131 22.1372 19.0131 22.1372L11.1323 22.2852C11.1323 22.2852 3.1871 22.2827 2.81824 29.9187C2.83401 35.5263 6.5433 37.3154 9.00159 37.8863L8.95184 37.8986L11.3883 48.2804C11.796 50.0152 13.3066 51.2272 15.0612 51.2272C16.8157 51.2272 18.3373 50.0078 18.7389 48.2631L20.9691 38.5681C27.8538 39.8886 33.8005 45.6147 36.2285 48.2496C36.368 48.4 36.5427 48.4678 36.715 48.4678C37.0609 48.4678 37.3945 48.1953 37.3945 47.781V37.7346C37.7937 37.6742 39.376 37.3894 40.9837 36.4918C43.4578 35.1083 44.7864 32.942 44.8265 30.2294C44.8653 27.5094 43.5888 25.3393 41.1354 23.9547L41.1329 23.9534ZM18.4149 37.0922L11.1553 36.9393H11.0995C10.8969 36.9393 9.06711 36.9122 7.30651 35.9912C5.13578 34.8543 4.02676 32.8211 4.01098 29.9483C4.14688 27.3109 5.3372 25.4355 7.54797 24.3727C9.32071 23.5207 11.1153 23.5009 11.1298 23.5009H11.1529L18.4149 23.3641V37.0935V37.0922ZM36.1981 46.4741C33.0834 43.3003 26.7545 37.8283 19.6089 37.1502V23.3123C21.6049 23.1051 28.3598 21.8142 36.1981 13.7689V46.4741ZM40.4352 35.4116C39.1794 36.1206 37.9078 36.4091 37.3921 36.5041V23.9152C37.7258 23.967 39.1721 24.2284 40.5821 25.0311C42.6363 26.2024 43.6616 27.9446 43.6288 30.2109C43.5961 32.4833 42.521 34.2329 40.4352 35.4104V35.4116ZM47.7592 22.5602C47.9121 22.5602 48.0649 22.501 48.1814 22.3826L54.2204 16.246C54.4534 16.0093 54.4534 15.6246 54.2204 15.3878C53.9874 15.1511 53.6088 15.1511 53.3759 15.3878L47.3369 21.5244C47.104 21.7612 47.104 22.1459 47.3369 22.3826C47.4534 22.501 47.6063 22.5602 47.7592 22.5602ZM48.1814 38.0552C47.9485 37.8185 47.5699 37.8185 47.3369 38.0552C47.104 38.2919 47.104 38.6766 47.3369 38.9133L53.3759 45.05C53.4924 45.1683 53.6452 45.2275 53.7981 45.2275C53.951 45.2275 54.1039 45.1683 54.2204 45.05C54.4534 44.8132 54.4534 44.4285 54.2204 44.1918L48.1814 38.0552ZM58.5849 29.6178H50.0452C49.7151 29.6178 49.4482 29.8891 49.4482 30.2244C49.4482 30.5598 49.7151 30.8311 50.0452 30.8311H58.5849C58.9149 30.8311 59.1819 30.5598 59.1819 30.2244C59.1819 29.8891 58.9149 29.6178 58.5849 29.6178Z" fill="#E2C459"/>
</svg>
