<svg width="127" height="40" viewBox="0 0 127 40" fill="none" xmlns="http://www.w3.org/2000/svg">
<path fill-rule="evenodd" clip-rule="evenodd" d="M10.3714 18.2845C8.90002 20.4803 9.20827 23.1734 12.1308 23.6774C14.2502 24.0396 17.6385 23.2544 22.2979 21.3173C22.5702 21.2048 22.8447 21.0878 23.1259 20.9686C18.2527 24.8743 13.7305 26.7417 9.56149 26.5707C5.69398 26.4065 1.72072 24.7663 2.01545 20.2284C2.72191 9.36829 21.4835 2.054 30.9329 2C28.2331 2.93144 25.603 4.05412 23.0629 5.35904C25.0315 5.1093 27.0226 5.0868 28.998 5.28704C26.188 6.10824 23.4656 7.20393 20.8693 8.55609C22.8334 8.07687 24.8448 7.80913 26.8652 7.75514C21.551 9.42228 13.5865 13.4968 10.3714 18.2845ZM29.0228 21.7133C30.4897 19.5174 30.186 16.8243 27.2634 16.3204C25.0945 15.9469 21.5982 16.7771 16.7745 18.8109L16.4326 18.9572L16.2728 19.0247L16.4191 18.9099C16.518 18.8312 16.6193 18.7525 16.7183 18.676C16.806 18.6085 16.8938 18.541 16.977 18.4757C17.139 18.3475 17.301 18.226 17.463 18.1067C17.4765 18.0977 17.49 18.0865 17.5035 18.0775C21.9087 14.8152 26.0215 13.265 29.8372 13.427C33.7047 13.5913 37.678 15.2314 37.3833 19.7694C36.6768 30.6295 17.9152 37.9438 8.46806 38C11.1679 37.0686 13.798 35.9459 16.3381 34.641C14.3672 34.8907 12.3738 34.9132 10.3962 34.713C13.2062 33.8895 15.9286 32.7961 18.5249 31.4439C16.5608 31.9231 14.5494 32.1909 12.5291 32.2426C17.8432 30.5755 25.8055 26.5077 29.0228 21.7133Z" fill="url(#paint0_linear_302_272)"/>
<path d="M56.5993 22.71C56.5993 21.981 56.3406 21.4141 55.8208 21.0068C55.3101 20.5996 54.4079 20.1789 53.1143 19.7447C51.8206 19.3104 50.7632 18.8897 49.942 18.4825C47.2691 17.1686 45.9327 15.3619 45.9327 13.0648C45.9327 11.9197 46.2635 10.914 46.9249 10.0433C47.5954 9.16358 48.5403 8.48412 49.7575 8.0004C50.9747 7.50769 52.3448 7.26245 53.8657 7.26245C55.3484 7.26245 56.6758 7.52793 57.8457 8.05665C59.0269 8.58537 59.9426 9.34357 60.5928 10.3268C61.2453 11.3009 61.5692 12.4169 61.5692 13.6746H56.6105C56.6105 12.8331 56.3518 12.1806 55.8321 11.7172C55.3214 11.2537 54.6284 11.022 53.751 11.022C52.8623 11.022 52.1603 11.22 51.6406 11.6182C51.1299 12.0052 50.8757 12.5024 50.8757 13.1076C50.8757 13.6363 51.1591 14.12 51.7261 14.5542C52.2931 14.9795 53.2898 15.4249 54.7139 15.8884C56.1403 16.3429 57.3103 16.8333 58.226 17.3643C60.4556 18.6512 61.5692 20.4241 61.5692 22.683C61.5692 24.4896 60.8898 25.907 59.5286 26.9375C58.1674 27.9679 56.3046 28.4831 53.9332 28.4831C52.2616 28.4831 50.7452 28.1861 49.3862 27.5899C48.0363 26.9847 47.0172 26.1613 46.3264 25.1218C45.647 24.0712 45.3073 22.8675 45.3073 21.5041H50.2929C50.2929 22.611 50.5764 23.4277 51.1434 23.9586C51.7194 24.4784 52.6485 24.7394 53.9332 24.7394C54.7544 24.7394 55.4024 24.5639 55.8726 24.2151C56.3586 23.8552 56.5993 23.3534 56.5993 22.71Z" fill="white"/>
<path d="M76.5578 21.9023L78.1012 12.8534H82.6774L79.0664 28.2019H75.0302L72.4946 19.0945L69.9455 28.2019H65.9093L62.2982 12.8534H66.8744L68.3908 22.1161L70.8274 12.8534H74.1572L76.5578 21.9023Z" fill="white"/>
<path d="M88.8533 28.1997H84.0656V12.8511H88.8533V28.1997ZM83.7821 8.89362C83.7821 8.21191 84.0273 7.65395 84.5201 7.21973C85.0105 6.7855 85.6495 6.56726 86.4324 6.56726C87.2154 6.56726 87.8544 6.7855 88.3448 7.21973C88.8353 7.65395 89.0805 8.21191 89.0805 8.89362C89.0805 9.57533 88.8353 10.1333 88.3448 10.5675C87.8544 11.0017 87.2154 11.22 86.4324 11.22C85.6495 11.22 85.0105 11.0017 84.5201 10.5675C84.0296 10.1333 83.7821 9.57533 83.7821 8.89362Z" fill="white"/>
<path d="M92.2821 28.1997V16.1719H90.057V12.8534H92.2821V11.634C92.2821 9.88358 92.7973 8.52691 93.8255 7.56397C94.8537 6.60103 96.3004 6.11731 98.161 6.11731C98.8405 6.11731 99.5874 6.21631 100.4 6.41429L100.413 9.93308C100.121 9.84758 99.7291 9.80483 99.2387 9.80483C97.7943 9.80483 97.0721 10.428 97.0721 11.6767V12.8534H100.06V16.1719H97.0721V28.1997H92.2821Z" fill="white"/>
<path d="M106.717 9.03533V12.8511H109.239V16.1696H106.717V23.1914C106.717 23.7674 106.821 24.1701 107.028 24.3974C107.235 24.6246 107.646 24.7371 108.261 24.7371C108.733 24.7371 109.129 24.7078 109.451 24.6516V28.0691C108.591 28.3436 107.694 28.4809 106.76 28.4809C105.118 28.4809 103.903 28.0939 103.12 27.3177C102.337 26.5415 101.943 25.3648 101.943 23.7854V16.1674H99.9879V12.8488H101.943V9.03308H106.717V9.03533Z" fill="white"/>
<path d="M116.677 21.504L119.226 12.8511H124.34L118.093 30.7667L117.825 31.4192C116.936 33.4058 115.37 34.398 113.123 34.398C112.499 34.398 111.842 34.3035 111.154 34.1145V30.697H111.777C112.448 30.697 112.958 30.598 113.307 30.4C113.665 30.211 113.93 29.8668 114.101 29.365L114.484 28.3436L109.158 12.8533H114.259L116.677 21.504Z" fill="white"/>
<defs>
<linearGradient id="paint0_linear_302_272" x1="1.85308" y1="2.15173" x2="37.2202" y2="37.5189" gradientUnits="userSpaceOnUse">
<stop offset="0.1991" stop-color="#FF3364"/>
<stop offset="0.5104" stop-color="#BB34FF"/>
<stop offset="0.8072" stop-color="#3586FF"/>
</linearGradient>
</defs>
</svg>
