<svg width="279" height="39" viewBox="0 0 279 39" fill="none" xmlns="http://www.w3.org/2000/svg">
<path d="M170.13 9.58203C164.594 9.58203 160.245 13.7338 160.245 19.6367C160.245 25.5396 164.594 29.6631 170.13 29.6631C175.468 29.6631 179.337 25.7373 179.789 20.8512V18.8741H169.198V20.9641H177.05C176.654 24.8617 173.999 27.3472 170.13 27.3472C165.978 27.3472 162.872 24.3534 162.872 19.6367C162.872 14.8918 165.978 11.898 170.13 11.898C172.898 11.898 175.044 13.2254 176.118 15.5132H179.196C177.728 11.7285 174.282 9.58203 170.13 9.58203Z" fill="#C59E43"/>
<path d="M197.818 29.4937H200.529L193.44 9.92095H190.474L183.357 29.4937H186.068L187.65 25.1159H196.236L197.818 29.4937ZM195.502 23.0259H188.384L191.943 13.0842L195.502 23.0259Z" fill="#C59E43"/>
<path d="M205.043 29.4937H207.613V14.8918L214.138 29.4937H215.945L222.441 14.92V29.4937H225.011V9.9492H222.272L215.041 26.1045L207.811 9.9492H205.043V29.4937Z" fill="#C59E43"/>
<path d="M230.782 29.4937H233.352V9.80798H230.782V29.4937Z" fill="#C59E43"/>
<path d="M252.052 9.77974V25.4266L241.715 9.77974H239.145V29.4937H241.715V13.8186L252.052 29.4937H254.622V9.77974H252.052Z" fill="#C59E43"/>
<path d="M269.341 9.58203C263.805 9.58203 259.456 13.7338 259.456 19.6367C259.456 25.5396 263.805 29.6631 269.341 29.6631C274.679 29.6631 278.548 25.7373 279 20.8512V18.8741H268.409V20.9641H276.26C275.865 24.8617 273.21 27.3472 269.341 27.3472C265.189 27.3472 262.082 24.3534 262.082 19.6367C262.082 14.8918 265.189 11.898 269.341 11.898C272.109 11.898 274.255 13.2254 275.328 15.5132H278.407C276.938 11.7285 273.493 9.58203 269.341 9.58203Z" fill="#C59E43"/>
<path fill-rule="evenodd" clip-rule="evenodd" d="M8.91902 17.36C7.35148 19.701 7.67965 22.5704 10.7938 23.1077C13.0508 23.495 16.6607 22.6559 21.6217 20.5923C21.9115 20.472 22.2048 20.3481 22.5032 20.2208C17.3118 24.3846 12.4957 26.3749 8.0567 26.1918C3.9336 26.0173 -0.29772 24.2695 0.016487 19.4323C0.770584 7.85491 20.7524 0.0575643 30.8158 0C27.9408 0.992549 25.1391 2.18919 22.4334 3.5812C24.5316 3.31605 26.6525 3.28989 28.7542 3.50619C25.7623 4.38187 22.8628 5.54885 20.0961 6.99145C22.189 6.48035 24.3291 6.19427 26.4815 6.13845C20.824 7.91422 12.3421 12.256 8.91728 17.36H8.91902ZM28.7839 21.0162C30.3445 18.6753 30.0233 15.8058 26.9091 15.2685C24.5997 14.8708 20.8764 15.7552 15.7391 17.9234L15.3742 18.0787L15.2049 18.1502L15.3603 18.0281C15.465 17.9444 15.5732 17.8606 15.6797 17.7787C15.774 17.7054 15.8665 17.6339 15.9538 17.5641C16.1266 17.4263 16.2994 17.299 16.4722 17.1716L16.5159 17.1402C21.208 13.6619 25.5877 12.01 29.6515 12.181C33.7711 12.3554 38.0024 14.1033 37.6882 18.9422C36.9358 30.5196 16.954 38.3169 6.89239 38.378C9.76738 37.3854 12.5691 36.187 15.2747 34.7968C13.1748 35.0619 11.0521 35.0881 8.94695 34.8718C11.9389 33.9944 14.8383 32.8274 17.6051 31.3865C15.5121 31.8976 13.372 32.1837 11.2197 32.2395C16.8772 30.4637 25.3573 26.1272 28.7839 21.018V21.0162Z" fill="url(#paint0_linear_92_1026)"/>
<path d="M60.4976 22.5188C60.4976 21.5316 60.1438 20.7606 59.4362 20.2094C58.7408 19.6582 57.5122 19.0861 55.7484 18.4965C53.9846 17.9069 52.5429 17.3348 51.4233 16.7836C47.7796 15.0009 45.9594 12.5502 45.9594 9.4314C45.9594 7.87898 46.4101 6.51319 47.3113 5.33231C48.2249 4.13921 49.5134 3.21473 51.1734 2.56062C52.8333 1.8943 54.701 1.5594 56.7728 1.5594C58.8447 1.5594 60.6015 1.91872 62.198 2.63737C63.8069 3.35602 65.055 4.38167 65.9439 5.71605C66.8311 7.03823 67.2765 8.55227 67.2765 10.2582H60.5187C60.5187 9.11568 60.1649 8.23132 59.4573 7.60163C58.762 6.97369 57.8167 6.65797 56.6197 6.65797C55.4227 6.65797 54.451 6.92659 53.7434 7.46558C53.0481 7.99236 52.7013 8.66565 52.7013 9.48547C52.7013 10.2041 53.0868 10.8582 53.8596 11.4478C54.6323 12.0252 55.9895 12.6287 57.9329 13.2566C59.8762 13.8724 61.4728 14.5404 62.7208 15.2573C65.7591 17.0016 67.2782 19.407 67.2782 22.4735C67.2782 24.9242 66.3506 26.8482 64.497 28.2471C62.6434 29.646 60.1015 30.3455 56.8697 30.3455C54.5919 30.3455 52.5253 29.9408 50.6717 29.1332C48.8304 28.3116 47.4416 27.1953 46.5016 25.7842C45.5757 24.3608 45.111 22.7247 45.111 20.8775H51.9074C51.9074 22.3793 52.2929 23.4887 53.0657 24.2073C53.8508 24.9138 55.1182 25.2661 56.8697 25.2661C57.9892 25.2661 58.8711 25.0289 59.5154 24.5544C60.172 24.066 60.5011 23.3875 60.5011 22.5154L60.4976 22.5188Z" fill="white"/>
<path d="M87.7063 21.4217L89.8098 9.14359H96.0465L91.123 29.967H85.6203L82.1631 17.6121L78.6866 29.967H73.1839L68.2604 9.14359H74.4971L76.5637 21.7112L79.8853 9.14359H84.4233L87.7063 21.4217Z" fill="white"/>
<path d="M104.466 29.967H97.9406V9.14359H104.466V29.967ZM97.5533 3.77465C97.5533 2.85018 97.8878 2.09315 98.5584 1.50358C99.2273 0.914012 100.097 0.617482 101.165 0.617482C102.234 0.617482 103.103 0.912267 103.772 1.50358C104.441 2.09315 104.776 2.85018 104.776 3.77465C104.776 4.69913 104.441 5.45615 103.772 6.04573C103.103 6.6353 102.234 6.93183 101.165 6.93183C100.097 6.93183 99.2273 6.63704 98.5584 6.04573C97.8895 5.45615 97.5533 4.69913 97.5533 3.77465Z" fill="white"/>
<path d="M109.14 29.967V13.6456H106.108V9.14185H109.14V7.48651C109.14 5.11253 109.84 3.2723 111.243 1.96233C112.646 0.65411 114.616 0 117.152 0C118.08 0 119.096 0.134311 120.203 0.404676L120.222 5.17707C119.823 5.06194 119.289 5.00438 118.62 5.00438C116.651 5.00438 115.667 5.85036 115.667 7.54407V9.14185H119.74V13.6456H115.667V29.9652H109.14V29.967Z" fill="white"/>
<path d="M128.818 3.96652V9.14359H132.254V13.6474H128.818V23.1729C128.818 23.9561 128.959 24.5004 129.242 24.8091C129.525 25.1178 130.085 25.2713 130.921 25.2713C131.566 25.2713 132.106 25.233 132.542 25.1562V29.7943C131.372 30.1658 130.148 30.3525 128.874 30.3525C126.633 30.3525 124.98 29.8257 123.912 28.7739C122.843 27.7221 122.308 26.1243 122.308 23.9823V13.6474H119.645V9.14359H122.308V3.96652H128.818Z" fill="white"/>
<path d="M142.393 20.8827L145.868 9.14359H152.839L144.322 33.4503L143.956 34.3364C142.745 37.0314 140.61 38.378 137.545 38.378C136.695 38.378 135.801 38.2489 134.861 37.9925V33.3544H135.711C136.625 33.3544 137.32 33.2201 137.797 32.9497C138.286 32.6933 138.647 32.2241 138.878 31.5456L139.399 30.1606L132.139 9.14533H139.091L142.393 20.8844V20.8827Z" fill="white"/>
<defs>
<linearGradient id="paint0_linear_92_1026" x1="-0.165054" y1="0.181414" x2="37.4977" y2="37.8723" gradientUnits="userSpaceOnUse">
<stop offset="0.2" stop-color="#FF3364"/>
<stop offset="0.51" stop-color="#BB34FF"/>
<stop offset="0.81" stop-color="#3586FF"/>
</linearGradient>
</defs>
</svg>
