<svg width="51" height="51" viewBox="0 0 51 51" fill="none" xmlns="http://www.w3.org/2000/svg">
<path d="M24.5149 1.07741C25.1337 0.720146 25.8961 0.720146 26.5149 1.07741L46.1655 12.4227C46.7843 12.78 47.1655 13.4402 47.1655 14.1548V36.8454C47.1655 37.5599 46.7843 38.2201 46.1655 38.5774L26.5149 49.9227C25.8961 50.28 25.1337 50.28 24.5149 49.9227L4.86426 38.5774C4.24546 38.2201 3.86426 37.5599 3.86426 36.8454V14.1548C3.86426 13.4402 4.24546 12.78 4.86426 12.4227L24.5149 1.07741ZM26.515 4.68534C25.8961 4.32801 25.1337 4.32799 24.5148 4.6853L7.98829 14.2274C7.36951 14.5847 6.98833 15.2449 6.98833 15.9594V35.0391C6.98833 35.7537 7.36951 36.4139 7.98829 36.7712L24.5148 46.3133C25.1337 46.6706 25.8961 46.6706 26.515 46.3132L43.04 36.7712C43.6587 36.4139 44.0399 35.7537 44.0399 35.0392V15.9594C44.0399 15.2449 43.6587 14.5847 43.04 14.2274L26.515 4.68534ZM34.3711 17.9122C35.133 17.5072 36.079 17.7964 36.484 18.5583C36.8892 19.3203 36.5998 20.2664 35.8377 20.6714L28.1205 24.7726C27.4673 25.1197 27.0591 25.799 27.0591 26.5387L27.0594 35.915C27.0594 36.7779 26.3599 37.4775 25.4969 37.4775C24.634 37.4775 23.9344 36.778 23.9344 35.9151L23.9341 26.54C23.9341 25.8004 23.5259 25.1213 22.8729 24.7741L15.156 20.6716C14.394 20.2665 14.1047 19.3204 14.5098 18.5584C14.9149 17.7965 15.861 17.5073 16.6229 17.9124L24.5577 22.1312C25.1447 22.4433 25.8484 22.4433 26.4355 22.1313L34.3711 17.9122Z" fill="#CEA74E"/>
</svg>
