<svg width="51" height="50" viewBox="0 0 51 50" fill="none" xmlns="http://www.w3.org/2000/svg">
<g clip-path="url(#clip0_158_503)">
<path d="M46.3333 7.39589V14.5834C46.3333 15.1359 46.1138 15.6658 45.7231 16.0565C45.3324 16.4472 44.8025 16.6667 44.2499 16.6667H36.9583C36.6563 16.6701 36.3572 16.6079 36.0816 16.4842C35.8061 16.3605 35.5608 16.1785 35.3626 15.9506C35.1644 15.7227 35.0182 15.4544 34.934 15.1644C34.8498 14.8743 34.8296 14.5695 34.8749 14.2709C34.9729 13.7655 35.246 13.3109 35.6461 12.987C36.0462 12.6631 36.5477 12.4906 37.0624 12.5001H39.4583C37.0317 9.79774 33.8725 7.85832 30.3646 6.91747C26.8567 5.97661 23.151 6.0748 19.6978 7.20012C16.2447 8.32543 13.1926 10.4294 10.9126 13.2565C8.63253 16.0835 7.2226 19.5119 6.85411 23.1251C6.80229 23.6407 6.56013 24.1186 6.1749 24.4653C5.78967 24.812 5.28905 25.0027 4.77078 25.0001C4.47875 25.0015 4.18966 24.9416 3.92229 24.8241C3.65492 24.7066 3.41524 24.5342 3.21879 24.3181C3.02235 24.1021 2.87353 23.8471 2.78199 23.5698C2.69045 23.2924 2.65824 22.999 2.68745 22.7084C3.12499 18.3346 4.8112 14.1788 7.54503 10.7367C10.2789 7.29464 13.945 4.71141 18.1062 3.29505C22.2674 1.8787 26.7482 1.68899 31.0142 2.74854C35.2803 3.80809 39.1516 6.07219 42.1666 9.27089V7.29172C42.1632 6.98973 42.2255 6.69061 42.3491 6.41508C42.4728 6.13955 42.6549 5.89421 42.8828 5.69604C43.1107 5.49786 43.3789 5.35161 43.669 5.26741C43.959 5.18321 44.2639 5.16307 44.5624 5.20839C45.0678 5.30636 45.5225 5.57942 45.8464 5.97954C46.1703 6.37965 46.3427 6.88119 46.3333 7.39589Z" fill="#CEA74E"/>
<path d="M4.66663 42.6042V35.4167C4.66663 34.8642 4.88612 34.3343 5.27682 33.9436C5.66752 33.5529 6.19742 33.3334 6.74996 33.3334H14.0416C14.3436 33.3299 14.6427 33.3922 14.9183 33.5159C15.1938 33.6395 15.4391 33.8216 15.6373 34.0495C15.8355 34.2774 15.9817 34.5457 16.0659 34.8357C16.1501 35.1257 16.1703 35.4306 16.125 35.7292C16.027 36.2346 15.7539 36.6892 15.3538 37.0131C14.9537 37.337 14.4522 37.5094 13.9375 37.5H11.5416C13.9682 40.2023 17.1274 42.1418 20.6353 43.0826C24.1432 44.0235 27.8489 43.9253 31.3021 42.8C34.7553 41.6746 37.8073 39.5706 40.0873 36.7436C42.3674 33.9166 43.7773 30.4882 44.1458 26.875C44.1976 26.3594 44.4398 25.8815 44.825 25.5348C45.2102 25.1881 45.7109 24.9974 46.2291 25C46.5212 24.9986 46.8102 25.0585 47.0776 25.176C47.345 25.2935 47.5847 25.4658 47.7811 25.6819C47.9776 25.898 48.1264 26.153 48.2179 26.4303C48.3095 26.7076 48.3417 27.0011 48.3125 27.2917C47.8749 31.6655 46.1887 35.8212 43.4549 39.2633C40.721 42.7054 37.055 45.2887 32.8937 46.705C28.7325 48.1214 24.2517 48.3111 19.9857 47.2515C15.7196 46.192 11.8483 43.9279 8.83329 40.7292V42.7084C8.83671 43.0103 8.77443 43.3095 8.65077 43.585C8.52711 43.8605 8.34503 44.1059 8.11713 44.304C7.88924 44.5022 7.62098 44.6485 7.33095 44.7327C7.04092 44.8169 6.73605 44.837 6.43746 44.7917C5.93208 44.6937 5.47744 44.4207 5.15354 44.0205C4.82963 43.6204 4.65722 43.1189 4.66663 42.6042Z" fill="#CEA74E"/>
<path d="M26.229 22.9167C22.5832 22.1875 22.5832 21.5625 22.5832 21.0417C22.5832 20.5209 22.7915 20.4167 23.104 20.1042C23.6787 19.7953 24.3276 19.6511 24.979 19.6875C26.1894 19.677 27.3791 20.0015 28.4165 20.625C28.6274 20.7971 28.8732 20.9212 29.1369 20.9887C29.4006 21.0563 29.6758 21.0656 29.9434 21.016C30.211 20.9664 30.4647 20.8592 30.6867 20.7018C30.9087 20.5443 31.0938 20.3404 31.229 20.1042C31.4076 19.8912 31.5393 19.643 31.6155 19.3757C31.6918 19.1084 31.7108 18.8281 31.6715 18.5529C31.6322 18.2777 31.5354 18.014 31.3874 17.7787C31.2393 17.5435 31.0434 17.342 30.8124 17.1875C29.8219 16.5761 28.7272 16.1524 27.5832 15.9375V13.5417C27.5832 12.9892 27.3637 12.4593 26.973 12.0686C26.5823 11.6779 26.0524 11.4584 25.4999 11.4584C24.9473 11.4584 24.4174 11.6779 24.0267 12.0686C23.636 12.4593 23.4165 12.9892 23.4165 13.5417V15.8334C20.2915 16.3542 18.2082 18.4375 18.2082 21.25C18.2082 24.0625 21.6457 26.3542 24.979 26.9792C28.3124 27.6042 28.4165 28.3334 28.4165 28.8542C28.4165 29.375 27.2707 30.3125 25.8124 30.3125C24.2786 30.3428 22.7776 29.8669 21.5415 28.9584C21.3101 28.8045 21.0501 28.6984 20.7771 28.6465C20.504 28.5946 20.2233 28.5979 19.9515 28.6561C19.6797 28.7143 19.4223 28.8264 19.1944 28.9856C18.9666 29.1449 18.773 29.3481 18.6249 29.5834C18.4606 29.7787 18.338 30.0056 18.2645 30.25C18.191 30.4945 18.1682 30.7513 18.1974 31.0049C18.2267 31.2585 18.3074 31.5034 18.4346 31.7246C18.5619 31.9459 18.7329 32.1389 18.9374 32.2917C20.2778 33.2324 21.8057 33.872 23.4165 34.1667V36.4584C23.4165 37.0109 23.636 37.5408 24.0267 37.9315C24.4174 38.3222 24.9473 38.5417 25.4999 38.5417C26.0524 38.5417 26.5823 38.3222 26.973 37.9315C27.3637 37.5408 27.5832 37.0109 27.5832 36.4584V34.1667C28.7259 33.9982 29.8039 33.5311 30.7082 32.8125C31.3612 32.3332 31.8907 31.7053 32.2529 30.9807C32.6152 30.2562 32.7998 29.4559 32.7915 28.6459C32.7915 24.7917 29.2499 23.5417 26.229 22.9167Z" fill="#CEA74E"/>
</g>
<defs>
<clipPath id="clip0_158_503">
<rect width="50" height="50" fill="white" transform="translate(0.5 6.10352e-05)"/>
</clipPath>
</defs>
</svg>
