<svg width="62" height="62" viewBox="0 0 62 62" fill="none" xmlns="http://www.w3.org/2000/svg">
<path d="M58.9424 15.8954C58.2055 15.3787 57.2606 15.2531 56.4144 15.5584L46.3833 19.1798C45.684 19.4322 45.1257 19.943 44.8131 20.617C44.6192 21.0363 44.5346 21.4872 44.5604 21.9357L38.9931 19.3993C38.6111 19.1856 34.7386 17.0626 32.341 17.0626H32.2975C29.4228 17.2528 27.1932 18.3777 25.5772 19.6095L16.9918 20.2941L17.2656 19.5614C17.5254 18.8651 17.4971 18.11 17.1845 17.4348C16.8719 16.7608 16.3148 16.25 15.6143 15.9975L5.58328 12.3761C4.73708 12.0708 3.79215 12.1965 3.05524 12.7131C2.31834 13.2298 1.87878 14.0753 1.87878 14.9748V35.8542C1.87878 37.3772 3.11871 38.6172 4.64423 38.6172H8.23355C9.3818 38.6172 10.4231 37.895 10.8251 36.8194L11.0307 36.2687L27.9196 48.9917C28.4414 49.3851 29.3276 49.7879 30.343 49.7879C31.3585 49.7879 32.3892 49.4227 33.3835 48.3412L33.5727 48.5079L33.6373 48.5431C33.6726 48.5619 34.2873 48.8895 35.1299 48.8895C35.4555 48.8895 35.8151 48.8402 36.1889 48.7064C37.0762 48.387 37.8096 47.6812 38.3784 46.6056C38.7827 46.7677 39.5079 47.0037 40.3083 47.0037C40.7972 47.0037 41.3143 46.9156 41.8009 46.6667C42.6765 46.2193 43.2617 45.3715 43.5462 44.1444C44.3007 44.0434 45.6723 43.7146 46.6148 42.6437C47.2824 41.8851 47.6079 40.9105 47.5891 39.7409L50.4251 37.989L51.1761 40.0004C51.5769 41.0761 52.6182 41.7982 53.7664 41.7982H57.3558C58.8801 41.7982 60.1212 40.5594 60.1212 39.0352V18.1558C60.1212 17.2563 59.6816 16.4109 58.9447 15.8942L58.9424 15.8954ZM45.6299 41.77C44.9189 42.5838 43.773 42.7987 43.2559 42.8551L38.9014 38.2602C38.6523 37.9972 38.2362 37.9854 37.9718 38.2344C37.7085 38.4833 37.6968 38.899 37.9459 39.1632L42.2851 43.7416C42.0982 44.6305 41.7362 45.22 41.2038 45.4948C40.3047 45.9574 39.0907 45.4877 38.7416 45.3351L38.6687 45.2552C38.6276 45.1907 38.5759 45.1331 38.5148 45.0861L34.3425 40.5101C34.098 40.2423 33.682 40.2224 33.414 40.4666C33.1461 40.7109 33.1261 41.1266 33.3705 41.3943L37.3371 45.7449C36.9093 46.6561 36.3781 47.235 35.7575 47.4652C35.0935 47.7106 34.4953 47.4934 34.3167 47.4147L30.0339 43.6383C29.7612 43.3987 29.3464 43.4246 29.1066 43.6958C28.8669 43.9683 28.8927 44.3828 29.1642 44.6223L32.3951 47.4711C30.6862 49.3029 28.9103 48.0899 28.7094 47.9419L11.5091 34.9829L16.4852 21.6504L23.9612 21.0539C23.0151 22.0414 22.4862 22.881 22.357 23.0959C21.9809 23.5703 18.9427 27.5581 21.4837 29.7375C23.7497 31.6809 27.7115 29.1081 28.7446 28.3753C30.1914 28.5773 31.5077 27.517 32.1906 26.8312C33.8595 28.4564 39.5678 33.9366 46.2587 39.4556C46.3328 40.4291 46.1224 41.2052 45.6299 41.7689V41.77ZM47.1343 38.4763C39.2282 31.958 32.6912 25.4843 32.6254 25.4186L32.0989 24.8949L31.6429 25.4808C31.6276 25.4996 30.1009 27.4078 28.7634 27.0414L28.4485 26.9557L28.1899 27.1541C27.0581 28.0207 23.8002 29.9935 22.3393 28.7417C20.688 27.3256 23.3794 23.9214 23.4077 23.8873L23.4406 23.8462L23.4664 23.8016C23.4958 23.7511 26.4634 18.7735 32.361 18.3742C34.4918 18.3883 38.3338 20.5349 38.3726 20.556L38.3972 20.5701L45.0517 23.602L49.9526 36.7337L47.1331 38.4751L47.1343 38.4763Z" fill="#E2C459"/>
</svg>
